<svg xmlns="http://www.w3.org/2000/svg" xmlns:xlink="http://www.w3.org/1999/xlink" width="100%" height="100%" viewBox="0 0 1270 780" preserveAspectRatio="xMinYMin meet"  xmlns:drawsvg="http://www.drawsvg.org"><defs id="drawsvgConstraints"/><rect id="svgEditorBackground" x="0" y="0" width="1270" height="780" style="fill: none; stroke: none;"/><path d="M584.809,113.026q17.471-12.351,77.709-35.866t146.451,9.963t29.888,110.585t-11.955,132.503t-121.544,0t-136.488-89.664t4.981-59.776Z" style="stroke:black;fill:#FFB5B5;stroke-width:1px;" id="e36_areaS2"/><path d="M405.481,123.985q9.335,-10.568,45.828,-32.877t83.686,-4.981t28.892,81.694t-6.974,142.466t-73.724,33.873t-78.705,-67.746t0.996,-152.429Z" style="stroke:black;fill:#EBEBEB;stroke-width:1px;" id="e34_areaS2"/><path d="M324.783,323.238q17.988,-6.794,53.798,-43.835t12.951,-166.377t-97.634,-56.787t-65.754,86.675t3.985,143.462t92.653,36.862Z" style="stroke:black;fill:#FFC2FF;stroke-width:1px;" id="e32_areaS2"/><path d="M1086.926,220.622q30.467,26.477,79.702,67.746t17.919,205.166t-212.158,79.7t-84.667-181.254t113.489-238.025t72.727,44.769Z" style="stroke:black;fill:#FFFFA6;stroke-width:1px;" id="e28_areaS2"/><path d="M627.673257,433.83232q21.071-10.413,92.653-15.94t122.541,79.701t4.981,184.309t-135.492,51.806t-125.529-71.731t-11.955-122.541t52.802-105.604Z" style="stroke:black;fill:palegreen;stroke-width:1px;" id="e23_areaS2"/><path d="M33.874703,189.748723q-6.87-60.155,1.993-121.544t72.727-60.772t72.727,2.989t28.891,36.862t2.989,182.316t-142.466,51.806Z" style="stroke: black; stroke-width: 1px;fill:lightcyan;" id="e21_areaS2"/><path d="M132.4,428.886q-35.873-22.003,215.229,17.895t164.242,199.264t-338.612,105.58t-128.457-223.056t40.8-43.909Z" style="stroke:black;fill:bisque;stroke-width:1px;" id="e19_areaS2"/><defs id="svgEditorDefs"><marker id="arrow20-16-left" markerHeight="16" markerUnits="strokeWidth" markerWidth="20" orient="auto" refX="3" refY="0" viewBox="0 -5 20 20"><path d="M 15 -5 L 0 0 L 15 5 z" fill="black"/></marker><marker id="arrow20-16-right" markerHeight="16" markerUnits="strokeWidth" markerWidth="20" orient="auto" refX="-3" refY="0" viewBox="-15 -5 20 20"><path d="M -15 -5 L 0 0 L -15 5 z" fill="black"/></marker></defs><rect x="71.661000" y="49.765000" style="stroke: black; stroke-width: 1px;fill:none;" id="e1_rectangle" width="135.358000" height="61.708300"/><text style="fill:black;font-family:Arial;font-size:20px;" x="85.596" y="74.6469" id="e2_texte"><tspan x="139.501" style="text-anchor:middle;">skatteverket</tspan><tspan x="139.501" dy="1.25em" style="text-anchor:middle;">TEST</tspan></text><rect x="71.661000" y="49.765000" style="stroke: black; stroke-width: 1px;fill:none;" id="e2_rectangle" width="135.358000" height="61.708300"/><rect x="71.661000" y="136.356000" style="stroke: black; stroke-width: 1px;fill:none;" id="e4_rectangle" width="135.358000" height="61.708300" transform="matrix(1 0 0 1 0 0)"/><text style="fill:black;font-family:Arial;font-size:20px;" x="85.596" y="161.238" id="e4_texte" transform="matrix(1 0 0 1 0 0.444529)"><tspan x="139.509" style="text-anchor:middle;" id="e5_tspan">mock</tspan><tspan style="text-anchor:middle;" x="139.509" dy="1.25em">navet</tspan></text><line id="e37_line" x1="143.461" y1="282.393" x2="137.4854393878" y2="492.6029351003" style="stroke: black; fill: paleturquoise; stroke-width:2px;marker-end:url(#arrow20-16-right);"/><rect x="71.661000" y="136.356000" style="stroke: black; stroke-width: 1px;fill:none;" id="e6_rectangle" width="135.358000" height="61.708300" transform="matrix(1 0 0 1 0 0)"/><text style="fill:black;font-family:Arial;font-size:20px;" x="85.596" y="161.238" id="e6_texte"/><text style="fill:black;font-family:Arial;font-size:20px;" x="254.809" y="161.237" id="e5_texte" transform="matrix(1 0 0 1 0 -0.547659)"><tspan x="308.717" style="text-anchor:middle;" id="e9_tspan">mock</tspan><tspan style="text-anchor:middle;" x="308.717" dy="1.25em">ladok</tspan></text><rect x="240.874000" y="136.355000" style="stroke: black; stroke-width: 1px;fill:none;" id="e10_rectangle" width="135.358000" height="61.708300" transform="matrix(1 0 0 1 0 -0.994995)"/><text style="fill:black;font-family:Arial;font-size:20px;" x="241.858" y="162.233" id="e10_texte"></text><rect x="411.086000" y="135.357000" style="stroke: black; stroke-width: 1px;fill:none;stroke-opacity:0.55;" id="e7_rectangle" width="135.358000" height="61.708300" transform="matrix(1 0 0 1 0 -1.98999)"/><text style="fill:black;font-family:Arial;font-size:20px;stroke-opacity:0.55;" x="425.021" y="160.239" id="e7_texte" transform="matrix(1 0 0 1 0 -1.53985)"><tspan x="478.925" style="text-anchor:middle;" id="e13_tspan">mock</tspan><tspan style="text-anchor:middle;" x="478.925" dy="1.25em">polisen</tspan></text><rect x="411.086000" y="135.357000" style="stroke: black; stroke-width: 1px;fill:none;stroke-opacity:0.55;" id="e14_rectangle" width="135.358000" height="61.708300" transform="matrix(1 0 0 1 0 -1.98999)"/><text style="fill:black;font-family:Arial;font-size:20px;" x="396.129" y="163.228" id="e14_texte"></text><rect x="590.267000" y="133.365000" style="stroke: black; stroke-width: 1px;fill:none;" id="e8_rectangle" width="205.095000" height="61.708300" transform="matrix(1 0 0 1 0 -0.994003)"/><text style="fill:black;font-family:Arial;font-size:20px;" x="635.082" y="159.243" id="e8_texte" transform="matrix(1 0 0 1 0 -1.64922)"><tspan x="688.979" style="text-anchor:middle;" id="e17_tspan">mock</tspan><tspan style="text-anchor:middle;" x="688.979" dy="1.25em">transportstyrelsen</tspan></text><text style="fill:black;font-family:Arial;font-size:20px;" x="552.391" y="163.228" id="e18_texte"></text><text style="fill:black;font-family:Arial;font-size:20px;" x="149.295" y="149.295" id="e9_texte"></text><text style="fill:black;font-family:Arial;font-size:20px;" x="177.163" y="157.257" id="e11_texte"></text><rect x="96.637400" y="225.605000" style="fill:#FFFFA6;stroke:black;stroke-width:1px;" id="e12_rectangle" width="91.656000" height="53.798000" transform="matrix(1 0 0 1 0 1.9925)"/><text style="fill:black; font-family: Arial; font-size: 20px;" x="119.551" y="247.523" id="e13_texte" transform="matrix(1 0 0 1 0 13.9446)">AGW</text><rect x="991.215000" y="302.817000" style="stroke: black; stroke-width: 1px;fill:none;" id="e13_rectangle" width="135.358000" height="61.708300"/><text style="fill:black;font-family:Arial;font-size:20px;" x="1003.16" y="304.286" id="e16_texte"><tspan x="1057.15" dy="1.25em" style="text-anchor:middle;" id="e18_tspan">MyDataShare</tspan><tspan style="text-anchor:middle;" x="1057.15" dy="1.25em">Operator</tspan></text><rect x="991.215000" y="302.817000" style="stroke: black; stroke-width: 1px;fill:none;" id="e18_rectangle" width="135.358000" height="61.708300"/><text style="fill:black;font-family:Arial;font-size:20px;" x="1001.25" y="484.633" id="e17_texte"></text><rect x="85.159300" y="495.010000" style="stroke: black; stroke-width: 1px;fill:none;" id="e15_rectangle" width="139.341" height="62.7046" transform="matrix(1 0 0 1 0 -0.994003)"/><text style="fill:black;font-family:Arial;font-size:20px;" x="99.0896" y="520.888" id="e19_texte" transform="matrix(1 0 0 1 0 -1.64922)"><tspan x="153.007" style="text-anchor:middle;" id="e19_tspan">mock</tspan><tspan style="text-anchor:middle;" x="153.007" dy="1.25em">mina-profiler</tspan></text><rect x="70.215300" y="611.573000" style="stroke: black; stroke-width: 1px;fill:none;" id="e16_rectangle" width="164.241000" height="62.704600" transform="matrix(1 0 0 1 0 -0.994003)"/><text style="fill:black;font-family:Arial;font-size:20px;" x="99.09" y="637.452" id="e20_texte" transform="matrix(1 0 0 1 0 -1.64922)"><tspan x="153.011" style="text-anchor:middle;" id="e20_tspan">mock</tspan><tspan style="text-anchor:middle;" x="153.011" dy="1.25em">mina-profiler-spa</tspan></text><rect x="664.014000" y="486.052000" style="stroke: black; stroke-width: 1px;fill:none;" id="e17_rectangle" width="87.531200" height="63.700900" transform="matrix(1 0 0 1 0 -0.994003)"/><text style="fill:black;font-family:Arial;font-size:20px;" x="663.997" y="513.922" id="e21_texte" transform="matrix(1 0 0 1 0 -1.64922)"><tspan x="708.505" style="text-anchor:middle;" id="e21_tspan">mock</tspan><tspan style="text-anchor:middle;" x="708.505" dy="1.25em">jobsite</tspan></text><rect x="651.063000" y="603.612000" style="stroke: black; stroke-width: 1px;fill:none;" id="e22_rectangle" width="126.384000" height="62.704600" transform="matrix(1 0 0 1 0 -0.994003)"/><text style="fill:black;font-family:Arial;font-size:20px;" x="662.005" y="630.487" id="e22_texte" transform="matrix(1 0 0 1 0 -1.64922)"><tspan x="715.936" style="text-anchor:middle;" id="e23_tspan">mock</tspan><tspan style="text-anchor:middle;" x="715.936" dy="1.25em" id="e24_tspan">jobsite-spa</tspan></text><rect x="991.215000" y="390.488000" style="stroke: black; stroke-width: 1px;fill:none;" id="e19_rectangle" width="135.358000" height="61.708300"/><text style="fill:black;font-family:Arial;font-size:20px;" x="1003.16" y="391.957" id="e23_texte"><tspan x="1057.15" dy="1.25em" style="text-anchor:middle;" id="e25_tspan">Signicat</tspan><tspan style="text-anchor:middle;" x="1057.15" dy="1.25em">IDP</tspan></text><rect x="991.215000" y="390.488000" style="stroke: black; stroke-width: 1px;fill:none;" id="e26_rectangle" width="135.358000" height="61.708300"/><text style="fill:black;font-family:Arial;font-size:20px;" x="1079.95" y="403.935" id="e26_texte"></text><line id="e2_line" x1="306.849000" y1="281.397000" x2="149.446" y2="491.602" style="stroke: black; fill: paleturquoise; stroke-width:2px;marker-end:url(#arrow20-16-right);"/><line id="e3_line" x1="480.200000" y1="277.412000" x2="165.389" y2="491.596" style="stroke: black; fill: paleturquoise; stroke-width:2px;marker-end:url(#arrow20-16-right);"/><line id="e1_line" x1="693.401000" y1="278.408000" x2="185.317" y2="492.586" style="stroke: black; fill: paleturquoise; stroke-width:2px;marker-end:url(#arrow20-16-right);"/><line id="e38_line" x1="740.2261335041" y1="252.5029230639" x2="989.2925360315" y2="330.2116406524" style="stroke: black; fill: paleturquoise; stroke-width: 1px; stroke-dasharray: 4px, 4px;"/><line id="e4_line" x1="525.036" y1="266.453" x2="990.289000" y2="336.189000" style="stroke: black; fill: paleturquoise; stroke-width: 1px; stroke-dasharray: 4px, 4px;"/><line id="e5_line" x1="359.653" y1="275.422" x2="990.289000" y2="340.174000" style="stroke: black; fill: paleturquoise; stroke-width: 1px; stroke-dasharray: 4px, 4px;"/><line id="e6_line" x1="186.297" y1="279.409" x2="990.289" y2="343.164" style="stroke: black; fill: paleturquoise; stroke-width: 1px; stroke-dasharray: 4px, 4px;"/><line id="e7_line" x1="227.144000" y1="515.524000" x2="988.299" y2="344.166" style="stroke: black; fill: paleturquoise; stroke-width: 1px; stroke-dasharray: 4px, 4px;"/><line id="e8_line" x1="754.198" y1="519.507" x2="987.303000" y2="351.140000" style="stroke: black; fill: paleturquoise; stroke-width: 1px; stroke-dasharray: 4px, 4px;"/><line id="e9_line" x1="344.536" y1="532.469" x2="660.561" y2="522.482" style="stroke: black; fill: paleturquoise; stroke-width:2px;marker-end:url(#arrow20-16-right);"/><rect x="993.206000" y="478.074000" style="stroke: black; stroke-width: 1px;fill:none;" id="e5_rectangle" width="135.358000" height="61.708300"/><text style="fill:black;font-family:Arial;font-size:20px;" x="1005.15" y="479.543" id="e24_texte"><tspan x="1059.14" dy="1.25em" style="text-anchor:middle;" id="e26_tspan">MyDataShare</tspan><tspan style="text-anchor:middle;" x="1059.14" dy="1.25em">Wallet</tspan></text><rect x="993.206000" y="478.074000" style="stroke: black; stroke-width: 1px;fill:none;" id="e27_rectangle" width="135.358000" height="61.708300"/><rect x="268.824000" y="225.605000" style="fill:#FFFFA6;stroke:black;stroke-width:1px;" id="e3_rectangle" width="91.656000" height="53.798000" transform="matrix(1 0 0 1 0 1.9925)"/><rect x="439.020000" y="223.614000" style="fill:#FFFFA6;stroke:black;stroke-width:1px;" id="e9_rectangle" width="91.656000" height="53.798000" transform="matrix(1 0 0 1 0 1.9925)"/><rect x="648.033000" y="220.628000" style="fill:#FFFFA6;stroke:black;stroke-width:1px;" id="e11_rectangle" width="91.656000" height="53.798000" transform="matrix(1 0 0 1 0 1.9925)"/><text style="fill:black; font-family: Arial; font-size: 20px;" x="290.742" y="248.518" id="e1_texte" transform="matrix(1 0 0 1 0 13.9446)">AGW</text><text style="fill:black; font-family: Arial; font-size: 20px;" x="460.938" y="248.518" id="e3_texte" transform="matrix(1 0 0 1 0 13.9446)">AGW</text><text style="fill:black; font-family: Arial; font-size: 20px;" x="672.937" y="245.532" id="e12_texte" transform="matrix(1 0 0 1 0 13.9446)">AGW</text><rect x="252.900000" y="503.294000" style="fill:#FFFFA6;stroke:black;stroke-width:1px;" id="e20_rectangle" width="91.656000" height="53.798000" transform="matrix(1 0 0 1 0 1.9925)"/><text style="fill:black; font-family: Arial; font-size: 20px;" x="275.813" y="525.212" id="e25_texte" transform="matrix(1 0 0 1 0 13.9446)">AGW</text><rect x="290.176000" y="613.564000" style="stroke: black; stroke-width: 1px;fill:none;" id="e21_rectangle" width="164.241000" height="62.704600" transform="matrix(1 0 0 1 0 -0.994003)"/><text style="fill:black;font-family:Arial;font-size:20px;" x="319.051" y="639.443" id="e27_texte" transform="matrix(1 0 0 1 0 -1.64922)"><tspan x="372.969" style="text-anchor:middle;" id="e27_tspan">platsbanken</tspan><tspan style="text-anchor:middle;" x="372.969" dy="1.25em">TEST</tspan></text></svg>
