<svg xmlns="http://www.w3.org/2000/svg" xmlns:xlink="http://www.w3.org/1999/xlink" width="100%" height="100%" viewBox="0 0 1270 780" preserveAspectRatio="xMinYMin meet"  xmlns:drawsvg="http://www.drawsvg.org"><defs id="drawsvgConstraints"/><rect id="svgEditorBackground" x="0" y="0" width="1270" height="780" style="fill: none; stroke: none;"/><path d="M1081.949,232.565q36.439,-16.321,79.702,48.835t23.891,234.029t-213.153,57.803t-140.403,-272.822t114.484,-109.632t123.487,44.769Z" style="stroke:black;fill:#FFFFA6;stroke-width:1px;" id="e28_areaS2"/><path d="M-4,-2.5v5q0,2,4,2t4,-2v-5q0,2,-4,2t-4,-2q0,-2,4,-2t4,2t-4,2t-4,-2Z" style="fill:#FFFF5C; stroke:black; vector-effect:non-scaling-stroke;stroke-width:1px;" id="e43_shape" transform="matrix(9.51062 0 0 9.51062 924.853 430.964)"/><path d="M575.282,245.839q34.27,49.858,128.394,0t117.445,-35.831t-7.962,-84.601t-139.341,-66.685t-100.524,143.323t-7.963,15.925Z" style="stroke:black;fill:#FFA3A3;stroke-width:1px;" id="e40_areaS2"/><path d="M584.809,113.026q17.471-12.351,77.709-35.866t95.691,.t46.808,38.924t21.885,214.117t-121.544,0t-136.488-89.664t4.981-59.776Z" style="stroke:black;fill:#FFB5B5;stroke-width:1px;" id="e36_areaS2"/><path d="M405.481,123.985q9.335-10.568,45.828-32.877t83.686-4.981t28.892,81.694t-14.936,72.795t-72.729,9.986t-72.733-34.901t1.991-91.716Z" style="stroke:black;fill:#EBEBEB;stroke-width:1px;" id="e34_areaS2"/><path d="M331.75,270.487q11.021,45.957,40.859-6.014t18.923-151.448t-97.634-56.787t-65.754,86.675t2.99,61.848t84.691,50.796Z" style="stroke:black;fill:#FFC2FF;stroke-width:1px;" id="e32_areaS2"/><path d="M627.673257,433.83232q21.071-10.413,92.653-15.94t122.541,79.701t4.981,184.309t-135.492,51.806t-125.529-71.731t-11.955-122.541t52.802-105.604Z" style="stroke:black;fill:palegreen;stroke-width:1px;" id="e23_areaS2"/><path d="M33.874703,189.748723q-6.87-60.155,1.993-121.544t72.727-60.772t72.727,2.989t28.891,36.862t3.984298,140.513492t-148.437787,27.918853Z" style="stroke: black; stroke-width: 1px;fill:lightcyan;" id="e21_areaS2"/><path d="M132.4,428.886q-35.873-22.003,215.229,17.895t164.242,199.264t-338.612,105.58t-128.457-223.056t40.8-43.909Z" style="stroke:black;fill:bisque;stroke-width:1px;" id="e19_areaS2"/><defs id="svgEditorDefs"><marker id="arrow20-16-left" markerHeight="16" markerUnits="strokeWidth" markerWidth="20" orient="auto" refX="3" refY="0" viewBox="0 -5 20 20"><path d="M 15 -5 L 0 0 L 15 5 z" fill="black"/></marker><marker id="arrow20-16-right" markerHeight="16" markerUnits="strokeWidth" markerWidth="20" orient="auto" refX="-3" refY="0" viewBox="-15 -5 20 20"><path d="M -15 -5 L 0 0 L -15 5 z" fill="black"/></marker></defs><rect x="71.661000" y="49.765000" style="stroke: black; stroke-width: 1px;fill:none;" id="e1_rectangle" width="135.358000" height="61.708300"/><text style="fill:black;font-family:Arial;font-size:20px;" x="85.596" y="74.6469" id="e2_texte"><tspan x="139.501" style="text-anchor:middle;">skatteverket</tspan><tspan x="139.501" dy="1.25em" style="text-anchor:middle;">TEST</tspan></text><rect x="71.661000" y="49.765000" style="stroke: black; stroke-width: 1px;fill:none;" id="e2_rectangle" width="135.358000" height="61.708300"/><rect x="71.661000" y="136.356000" style="stroke: black; stroke-width: 1px;fill:none;" id="e4_rectangle" width="135.358000" height="61.708300" transform="matrix(1 0 0 1 0 0)"/><text style="fill:black;font-family:Arial;font-size:20px;" x="85.596" y="161.238" id="e4_texte" transform="matrix(1 0 0 1 0 0.444529)"><tspan x="139.509" style="text-anchor:middle;" id="e5_tspan">mock</tspan><tspan style="text-anchor:middle;" x="139.509" dy="1.25em">navet</tspan></text><line id="e37_line" x1="142.466" y1="197.799" x2="854.1" y2="353.26" style="stroke: black; fill: paleturquoise; stroke-width:2px;marker-end:url(#arrow20-16-right);"/><rect x="71.661000" y="136.356000" style="stroke: black; stroke-width: 1px;fill:none;" id="e6_rectangle" width="135.358000" height="61.708300" transform="matrix(1 0 0 1 0 0)"/><text style="fill:black;font-family:Arial;font-size:20px;" x="85.596" y="161.238" id="e6_texte"/><text style="fill:black;font-family:Arial;font-size:20px;" x="254.809" y="161.237" id="e5_texte" transform="matrix(1 0 0 1 0 -0.547659)"><tspan x="308.717" style="text-anchor:middle;" id="e9_tspan">mock</tspan><tspan style="text-anchor:middle;" x="308.717" dy="1.25em">ladok</tspan></text><rect x="240.874000" y="136.355000" style="stroke: black; stroke-width: 1px;fill:none;" id="e10_rectangle" width="135.358000" height="61.708300" transform="matrix(1 0 0 1 0 -0.994995)"/><text style="fill:black;font-family:Arial;font-size:20px;" x="241.858" y="162.233" id="e10_texte"></text><rect x="411.086000" y="135.357000" style="stroke: black; stroke-width: 1px;fill:none;stroke-opacity:0.55;" id="e7_rectangle" width="135.358000" height="61.708300" transform="matrix(1 0 0 1 0 -1.98999)"/><text style="fill:black;font-family:Arial;font-size:20px;stroke-opacity:0.55;" x="425.021" y="160.239" id="e7_texte" transform="matrix(1 0 0 1 0 -1.53985)"><tspan x="478.925" style="text-anchor:middle;" id="e13_tspan">mock</tspan><tspan style="text-anchor:middle;" x="478.925" dy="1.25em">polisen</tspan></text><rect x="411.086000" y="135.357000" style="stroke: black; stroke-width: 1px;fill:none;stroke-opacity:0.55;" id="e14_rectangle" width="135.358000" height="61.708300" transform="matrix(1 0 0 1 0 -1.98999)"/><text style="fill:black;font-family:Arial;font-size:20px;" x="396.129" y="163.228" id="e14_texte"></text><rect x="590.267000" y="133.365000" style="stroke: black; stroke-width: 1px;fill:none;" id="e8_rectangle" width="205.095000" height="61.708300" transform="matrix(1 0 0 1 0 -0.994003)"/><text style="fill:black;font-family:Arial;font-size:20px;" x="635.082" y="159.243" id="e8_texte" transform="matrix(1 0 0 1 0 -1.64922)"><tspan x="688.979" style="text-anchor:middle;" id="e17_tspan">mock</tspan><tspan style="text-anchor:middle;" x="688.979" dy="1.25em">transportstyrelsen</tspan></text><text style="fill:black;font-family:Arial;font-size:20px;" x="552.391" y="163.228" id="e18_texte"></text><text style="fill:black;font-family:Arial;font-size:20px;" x="149.295" y="149.295" id="e9_texte"></text><text style="fill:black;font-family:Arial;font-size:20px;" x="177.163" y="157.257" id="e11_texte"></text><rect x="1019.080000" y="300.826000" style="stroke: black; stroke-width: 1px;fill:none;" id="e13_rectangle" width="135.358000" height="61.708300"/><text style="fill:black;font-family:Arial;font-size:20px;" x="1031.03" y="302.295" id="e16_texte" xml:space="preserve"><tspan x="1085.15" dy="1.25em" style="text-anchor:middle;" id="e18_tspan">Enterprise</tspan><tspan style="text-anchor:middle;" x="1085.15" dy="1.25em">Solid Server</tspan></text><rect x="1019.080000" y="300.826000" style="stroke: black; stroke-width: 1px;fill:none;" id="e18_rectangle" width="135.358000" height="61.708300"/><text style="fill:black;font-family:Arial;font-size:20px;" x="1001.25" y="484.633" id="e17_texte"></text><rect x="85.159300" y="495.010000" style="stroke: black; stroke-width: 1px;fill:none;" id="e15_rectangle" width="139.341" height="62.7046" transform="matrix(1 0 0 1 0 -0.994003)"/><text style="fill:black;font-family:Arial;font-size:20px;" x="99.0896" y="520.888" id="e19_texte" transform="matrix(1 0 0 1 0 -1.64922)"><tspan x="153.007" style="text-anchor:middle;" id="e19_tspan">mock</tspan><tspan style="text-anchor:middle;" x="153.007" dy="1.25em">mina-profiler</tspan></text><rect x="70.215300" y="611.573000" style="stroke: black; stroke-width: 1px;fill:none;" id="e16_rectangle" width="164.241000" height="62.704600" transform="matrix(1 0 0 1 0 -0.994003)"/><text style="fill:black;font-family:Arial;font-size:20px;" x="99.09" y="637.452" id="e20_texte" transform="matrix(1 0 0 1 0 -1.64922)"><tspan x="153.011" style="text-anchor:middle;" id="e20_tspan">mock</tspan><tspan style="text-anchor:middle;" x="153.011" dy="1.25em">mina-profiler-spa</tspan></text><rect x="664.014000" y="486.052000" style="stroke: black; stroke-width: 1px;fill:none;" id="e17_rectangle" width="87.531200" height="63.700900" transform="matrix(1 0 0 1 0 -0.994003)"/><text style="fill:black;font-family:Arial;font-size:20px;" x="663.997" y="513.922" id="e21_texte" transform="matrix(1 0 0 1 0 -1.64922)"><tspan x="708.505" style="text-anchor:middle;" id="e21_tspan">mock</tspan><tspan style="text-anchor:middle;" x="708.505" dy="1.25em">jobsite</tspan></text><rect x="651.063000" y="603.612000" style="stroke: black; stroke-width: 1px;fill:none;" id="e22_rectangle" width="126.384000" height="62.704600" transform="matrix(1 0 0 1 0 -0.994003)"/><text style="fill:black;font-family:Arial;font-size:20px;" x="662.005" y="630.487" id="e22_texte" transform="matrix(1 0 0 1 0 -1.64922)"><tspan x="715.936" style="text-anchor:middle;" id="e23_tspan">mock</tspan><tspan style="text-anchor:middle;" x="715.936" dy="1.25em" id="e24_tspan">jobsite-spa</tspan></text><rect x="1019.080000" y="388.497000" style="stroke: black; stroke-width: 1px;fill:none;" id="e19_rectangle" width="135.358000" height="61.708300"/><text style="fill:black;font-family:Arial;font-size:20px;" x="1031.03" y="389.966" id="e23_texte"><tspan x="1085.15" dy="1.25em" style="text-anchor:middle;" id="e25_tspan">Signicat</tspan><tspan style="text-anchor:middle;" x="1085.15" dy="1.25em">IDP</tspan></text><rect x="1019.080000" y="388.497000" style="stroke: black; stroke-width: 1px;fill:none;" id="e26_rectangle" width="135.358000" height="61.708300"/><text style="fill:black;font-family:Arial;font-size:20px;" x="1079.95" y="403.935" id="e26_texte"></text><line id="e2_line" x1="316.804" y1="197.793" x2="856.098" y2="330.356" style="stroke: black; fill: paleturquoise; stroke-width:2px;marker-end:url(#arrow20-16-right);"/><line id="e9_line" x1="920.810000" y1="363.262000" x2="921.435000" y2="409.010000" style="stroke: black; fill: paleturquoise; stroke-width:2px;marker-end:url(#arrow20-16-right);"/><rect x="290.176000" y="613.564000" style="stroke: black; stroke-width: 1px;fill:none;" id="e21_rectangle" width="164.241000" height="62.704600" transform="matrix(1 0 0 1 0 -0.994003)"/><text style="fill:black;font-family:Arial;font-size:20px;" x="319.051" y="639.443" id="e27_texte" transform="matrix(1 0 0 1 0 -1.64922)"><tspan x="372.969" style="text-anchor:middle;" id="e27_tspan">platsbanken</tspan><tspan style="text-anchor:middle;" x="372.969" dy="1.25em">TEST</tspan></text><rect x="857.841000" y="300.826000" style="stroke: black; stroke-width: 1px;fill:none;" id="e3_rectangle" width="135.358000" height="61.708300"/><text style="fill:black;font-family:Arial;font-size:20px;" x="869.792" y="302.295" id="e3_texte" xml:space="preserve"><tspan x="923.882" dy="1.25em" style="text-anchor:middle;" id="e3_tspan"></tspan><tspan style="text-anchor:middle;" x="923.882" dy="1.25em">POD</tspan><tspan style="text-anchor:middle;" x="923.882" dy="1.25em">Populator</tspan></text><rect x="857.841000" y="300.826000" style="stroke: black; stroke-width: 1px;fill:none;" id="e5_rectangle" width="135.358000" height="61.708300"/><line id="e3_line" x1="697.008" y1="196.8" x2="855.105" y2="311.442" style="stroke: black; fill: paleturquoise; stroke-width:2px;marker-end:url(#arrow20-16-right);"/><line id="e4_line" x1="924.932000" y1="473.493000" x2="776.449" y2="599.079" style="stroke: black; fill: paleturquoise; stroke-width:2px;marker-end:url(#arrow20-16-right);"/><line id="e5_line" x1="230.052" y1="516.286" x2="856.092" y2="364.208" style="stroke: black; fill: paleturquoise; stroke-width:2px;marker-end:url(#arrow20-16-right);"/></svg>
